<?xml version="1.0" standalone="no"?>
<!DOCTYPE svg PUBLIC "-//W3C//DTD SVG 20010904//EN"
 "http://www.w3.org/TR/2001/REC-SVG-20010904/DTD/svg10.dtd">
<svg version="1.0" xmlns="http://www.w3.org/2000/svg"
 width="178.000000pt" height="178.000000pt" viewBox="0 0 178.000000 178.000000"
 preserveAspectRatio="xMidYMid meet">
<metadata>
Created by potrace 1.14, written by Peter Selinger 2001-2017
</metadata>
<g transform="translate(0.000000,178.000000) scale(0.100000,-0.100000)"
fill="#000000" stroke="none">
<path d="M770 1699 c-144 -17 -239 -50 -344 -119 -232 -154 -358 -395 -351
-673 2 -76 0 -100 -11 -104 -23 -9 -54 -69 -54 -106 0 -26 6 -40 26 -54 l26
-19 -21 -36 c-21 -35 -20 -68 3 -68 6 0 27 4 45 10 39 11 36 12 45 -15 4 -16
-1 -23 -24 -33 -27 -12 -39 -32 -46 -72 -4 -21 34 -58 67 -65 35 -8 39 -14 43
-67 4 -55 36 -82 87 -74 31 5 39 1 65 -26 32 -34 128 -81 189 -93 106 -20 260
-10 400 26 44 12 85 22 90 23 6 2 24 8 40 15 17 6 35 13 41 15 5 2 16 -9 22
-24 7 -16 29 -36 49 -45 49 -24 103 -8 132 39 26 42 27 71 2 93 -18 15 -15 18
72 71 51 30 94 58 97 61 3 3 31 26 63 50 68 52 132 125 173 196 25 44 28 61
30 148 1 56 7 103 13 111 16 19 22 73 11 102 -8 19 -6 26 5 30 26 10 17 54
-19 90 -22 22 -35 47 -40 73 -14 90 -65 135 -153 135 -33 0 -44 4 -49 18 -9
31 -96 140 -148 189 -121 111 -282 183 -436 196 -30 2 -62 5 -70 6 -8 2 -40 0
-70 -4z"/>
</g>
</svg>
